<svg viewBox="0 0 1500 500" xmlns="http://www.w3.org/2000/svg"> <!-- 渐变和滤镜定义 --> <defs> <linearGradient id="bgGradient" x1="0%" y1="0%" x2="100%" y2="100%"> <stop offset="0%" stop-color="#1A1225" /> <stop offset="50%" stop-color="#271C36" /> <stop offset="100%" stop-color="#20182B" /> </linearGradient> <linearGradient id="textGradient" x1="0%" y1="0%" x2="100%" y2="0%"> <stop offset="0%" stop-color="#FFFFFF" /> <stop offset="100%" stop-color="#FFCC80" /> </linearGradient> <filter id="glow" x="-50%" y="-50%" width="200%" height="200%"> <feGaussianBlur stdDeviation="6" result="blur" /> <feComposite in="SourceGraphic" in2="blur" operator="over" /> </filter> <linearGradient id="primaryGradient" x1="0%" y1="0%" x2="100%" y2="100%"> <stop offset="0%" stop-color="#FF9900" /> <stop offset="100%" stop-color="#FFAC38" /> </linearGradient> <linearGradient id="secondaryGradient" x1="0%" y1="0%" x2="100%" y2="0%"> <stop offset="0%" stop-color="#FFC062" /> <stop offset="100%" stop-color="#FFD28A" /> </linearGradient> <radialGradient id="coreGradient" cx="50%" cy="50%" r="50%" fx="50%" fy="50%"> <stop offset="0%" stop-color="#FFFFFF" /> <stop offset="70%" stop-color="#FFD28A" /> <stop offset="100%" stop-color="#FF9900" /> </radialGradient> <radialGradient id="particleGradient" cx="50%" cy="50%" r="50%" fx="50%" fy="50%"> <stop offset="0%" stop-color="#FFFFFF" /> <stop offset="50%" stop-color="#FFC062" /> <stop offset="100%" stop-color="#FFAC38" /> </radialGradient> <!-- 背景装饰元素 --> <pattern id="hexPattern" width="60" height="104" patternUnits="userSpaceOnUse" patternTransform="scale(1.5) rotate(0)"> <path d="M30,0 L60,17.3 L60,51.96 L30,69.28 L0,51.96 L0,17.3 L30,0" fill="none" stroke="url(#primaryGradient)" stroke-width="0.5" opacity="0.15"/> </pattern> <!-- 粒子效果 --> <filter id="particleBlur" x="-150%" y="-150%" width="400%" height="400%"> <feGaussianBlur stdDeviation="2" result="blur"/> <feColorMatrix type="matrix" values="1 0 0 0 0 0 1 0 0 0 0 0 1 0 0 0 0 0 18 -7" result="glow"/> <feBlend in="SourceGraphic" in2="glow" mode="normal"/> </filter> </defs> <!-- 背景 --> <rect width="1500" height="500" fill="url(#bgGradient)" /> <!-- 背景图形元素 --> <rect width="1500" height="500" fill="url(#hexPattern)" opacity="0.7" /> <!-- 装饰性粒子元素 --> <g filter="url(#particleBlur)"> <circle cx="200" cy="100" r="3" fill="#FFAC38" opacity="0.6" /> <circle cx="350" cy="420" r="2" fill="#FFAC38" opacity="0.5" /> <circle cx="1100" cy="150" r="2.5" fill="#FFAC38" opacity="0.7" /> <circle cx="1250" cy="350" r="2" fill="#FFAC38" opacity="0.6" /> <circle cx="900" cy="80" r="1.5" fill="#FFAC38" opacity="0.5" /> <circle cx="700" cy="420" r="3" fill="#FFAC38" opacity="0.7" /> <circle cx="500" cy="250" r="2" fill="#FFAC38" opacity="0.4" /> <circle cx="1400" cy="120" r="2.5" fill="#FFAC38" opacity="0.6" /> <circle cx="100" cy="330" r="2" fill="#FFAC38" opacity="0.5" /> <circle cx="1300" cy="420" r="3" fill="#FFAC38" opacity="0.7" /> </g> <!-- 背景波浪线 --> <path d="M0,350 C150,320 300,380 450,340 C600,300 750,360 900,330 C1050,300 1200,360 1350,340 C1500,320 1650,370 1800,350" stroke="url(#secondaryGradient)" stroke-width="1" fill="none" opacity="0.3" /> <path d="M0,370 C200,400 400,340 600,390 C800,440 1000,360 1200,410 C1400,460 1600,390 1800,420" stroke="url(#primaryGradient)" stroke-width="1.5" fill="none" opacity="0.3" /> <!-- Logo元素 - 左侧 --> <g transform="translate(275, 250) scale(0.7)"> <!-- 外环 --> <path d="M0,-160 A160,160 0 0,1 139,80 A160,160 0 0,1 -139,80 A160,160 0 0,1 0,-160" fill="none" stroke="url(#primaryGradient)" stroke-width="4" opacity="0.5" /> <!-- 核心节点 --> <circle cx="0" cy="0" r="40" fill="url(#coreGradient)" opacity="0.95" filter="url(#glow)" /> <!-- 六个粒子节点 --> <g> <circle cx="85" cy="-65" r="18" fill="url(#particleGradient)" filter="url(#glow)" /> <circle cx="-90" cy="-50" r="18" fill="url(#particleGradient)" filter="url(#glow)" /> <circle cx="70" cy="80" r="18" fill="url(#particleGradient)" filter="url(#glow)" /> <circle cx="-75" cy="75" r="18" fill="url(#particleGradient)" filter="url(#glow)" /> <circle cx="0" cy="-100" r="18" fill="url(#particleGradient)" filter="url(#glow)" /> <circle cx="0" cy="100" r="18" fill="url(#particleGradient)" filter="url(#glow)" /> </g> <!-- 核心连接线 --> <g> <path d="M 0,0 Q 40,-30 85,-65" stroke="url(#primaryGradient)" stroke-width="5" fill="none" opacity="0.8" /> <path d="M 0,0 Q -45,-25 -90,-50" stroke="url(#primaryGradient)" stroke-width="5" fill="none" opacity="0.8" /> <path d="M 0,0 Q 35,40 70,80" stroke="url(#primaryGradient)" stroke-width="5" fill="none" opacity="0.8" /> <path d="M 0,0 Q -35,35 -75,75" stroke="url(#primaryGradient)" stroke-width="5" fill="none" opacity="0.8" /> <path d="M 0,0 Q 0,-50 0,-100" stroke="url(#primaryGradient)" stroke-width="5" fill="none" opacity="0.8" /> <path d="M 0,0 Q 0,50 0,100" stroke="url(#primaryGradient)" stroke-width="5" fill="none" opacity="0.8" /> <path d="M -90,-50 A 120,120 0 0,0 -75,75" stroke="url(#secondaryGradient)" stroke-width="2" fill="none" opacity="0.5" /> <path d="M 85,-65 A 120,120 0 0,1 70,80" stroke="url(#secondaryGradient)" stroke-width="2" fill="none" opacity="0.5" /> <path d="M 0,-100 A 60,60 0 0,1 85,-65" stroke="url(#secondaryGradient)" stroke-width="2" fill="none" opacity="0.5" /> <path d="M 0,-100 A 60,60 0 0,0 -90,-50" stroke="url(#secondaryGradient)" stroke-width="2" fill="none" opacity="0.5" /> </g> <!-- 内部照明效果 --> <circle cx="0" cy="0" r="120" fill="url(#primaryGradient)" opacity="0.05" /> </g> <!-- 标题文字 --> <g transform="translate(750, 200)"> <text x="0" y="0" font-family="'Arial', sans-serif" font-weight="700" font-size="80" fill="url(#textGradient)" text-anchor="middle" filter="url(#glow)"> QuantumFluxAI </text> <!-- 标语文字 --> <text x="0" y="70" font-family="'Arial', sans-serif" font-weight="300" font-size="28" fill="white" text-anchor="middle" opacity="0.8"> DECENTRALIZED AI ECOSYSTEM </text> <!-- 说明文字 --> <text x="0" y="130" font-family="'Arial', sans-serif" font-weight="300" font-size="22" fill="white" text-anchor="middle" opacity="0.7"> Unlocking the Power of Multi-Chain AI Computing </text> </g> <!-- 装饰性右侧元素 --> <g transform="translate(1200, 250)"> <!-- 抽象网络结构 --> <g opacity="0.4"> <path d="M0,0 L70,-60 L140,-30 L180,50 L120,100 L40,80 Z" fill="none" stroke="url(#primaryGradient)" stroke-width="2" /> <circle cx="0" cy="0" r="8" fill="url(#particleGradient)" /> <circle cx="70" cy="-60" r="8" fill="url(#particleGradient)" /> <circle cx="140" cy="-30" r="8" fill="url(#particleGradient)" /> <circle cx="180" cy="50" r="8" fill="url(#particleGradient)" /> <circle cx="120" cy="100" r="8" fill="url(#particleGradient)" /> <circle cx="40" cy="80" r="8" fill="url(#particleGradient)" /> <line x1="0" y1="0" x2="140" y2="-30" stroke="url(#secondaryGradient)" stroke-width="1.5" /> <line x1="0" y1="0" x2="180" y2="50" stroke="url(#secondaryGradient)" stroke-width="1.5" /> <line x1="70" y1="-60" x2="180" y2="50" stroke="url(#secondaryGradient)" stroke-width="1.5" /> <line x1="140" y1="-30" x2="40" y2="80" stroke="url(#secondaryGradient)" stroke-width="1.5" /> </g> </g> </svg> 